# xmcd CD database file
#
# Track frame offsets:
#	150
#	24759
#	42984
#	59842
#	78743
#	92742
#	111330
#	126714
#	141944
#	157689
#	172182
#	193592
#	207551
#	223520
#	240459
#
# Disc length: 3452 seconds
#
# Revision: 0
# Processed by: cddbd v1.5.2PL0 Copyright (c) Steve Scherf et al.
# Submitted via: CDex 1.70beta2
#
DISCID=e00d7a0f
DTITLE=Fahir Atakoğlu - İz
DYEAR=2008
DGENRE=New Age
TTITLE0=Tarkan - Alaturka
TTITLE1=Fahir Atakoğlu - Geze Geze
TTITLE2=Fahir Atakoğlu - Göz yaşı
TTITLE3=Sertap Erener - İstanbul
TTITLE4=Fahir Atakoğlu - Ağır Roman Bale Suiti 1
TTITLE5=Fahir Atakoğlu - Med Cezir
TTITLE6=Fahir Atakoğlu - Nazım ile Piraye
TTITLE7=Sezen Aksu - Lâ'l
TTITLE8=Fahir Atakoğlu - İlk aşk
TTITLE9=Fahir Atakoğlu - Cumhuriyet
TTITLE10=Levent Yüksel - Sır
TTITLE11=Fahir Atakoğlu - Ağır Roman Bale Suiti 2
TTITLE12=Fahir Atakoğlu - Oniki
TTITLE13=Nilüfer - Uzağım Olma
TTITLE14=Fahir Atakoğlu - Sarı Zeybek
EXTD=YEAR: 2008
EXTT0=
EXTT1=
EXTT2=
EXTT3=
EXTT4=
EXTT5=
EXTT6=
EXTT7=
EXTT8=
EXTT9=
EXTT10=
EXTT11=
EXTT12=
EXTT13=
EXTT14=
PLAYORDER=
